# xmcd CD database file
#
# Track frame offsets:
#	150
#	22427
#	41997
#	59570
#	80050
#	103807
#	122447
#	139580
#	159080
#	179757
#	200357
#	219080
#
# Disc length: 3065 seconds
#
# Revision: 0
# Processed by: cddbd v1.5.1PL0 Copyright (c) Steve Scherf et al.
# Submitted via: CDex 1.51
#
DISCID=af0bf70c
DTITLE=ビリー・バンバン - 季節は回転木馬のように
DYEAR=1993
DGENRE=Vocal
TTITLE0=季節は回転木馬のように
TTITLE1=夢の中へ帰ろう
TTITLE2=白いブランコ（ニューバージョン）
TTITLE3=僕の半分の未来図
TTITLE4=君には君しかないのだから
TTITLE5=海が聴こえる
TTITLE6=まだ愛せそうだ
TTITLE7=心をこめて
TTITLE8=素顔のままで
TTITLE9=あざやかな季節の中を
TTITLE10=さよならをするために（ニューバージョン）
TTITLE11=Sun is rising
EXTD=YEAR: 1993
EXTT0=
EXTT1=
EXTT2=
EXTT3=
EXTT4=
EXTT5=
EXTT6=
EXTT7=
EXTT8=
EXTT9=
EXTT10=
EXTT11=
PLAYORDER=
